<?xml version="1.0" encoding="UTF-8" ?>
<!DOCTYPE svg PUBLIC "-//W3C//DTD SVG 1.1//EN" "http://www.w3.org/Graphics/SVG/1.1/DTD/svg11.dtd">
<svg width="500pt" height="500pt" viewBox="0 0 500 500" version="1.1" xmlns="http://www.w3.org/2000/svg">
<g id="#ffffffff">
<path fill="#ffffff" opacity="1.00" d=" M 194.27 48.33 C 194.83 50.17 194.92 52.10 194.90 54.01 C 194.84 98.79 194.94 143.56 194.85 188.34 C 188.41 181.93 182.08 175.43 175.61 169.07 C 181.70 128.80 188.33 88.62 194.27 48.33 Z" />
<path fill="#ffffff" opacity="1.00" d=" M 169.76 90.93 C 175.58 89.43 181.52 88.45 187.50 87.96 C 187.40 88.46 187.18 89.46 187.07 89.96 C 181.39 90.51 175.76 91.47 170.20 92.79 C 170.09 92.33 169.87 91.40 169.76 90.93 Z" />
<path fill="#ffffff" opacity="1.00" d=" M 202.90 88.11 C 208.80 88.33 214.72 89.21 220.38 90.90 L 221.11 92.63 C 215.33 91.83 209.63 90.45 203.80 89.94 L 202.90 88.11 Z" />
<path fill="#ffffff" opacity="1.00" d=" M 145.24 100.82 C 152.57 96.84 160.26 93.42 168.37 91.36 C 168.44 91.83 168.58 92.78 168.65 93.25 C 160.71 95.44 153.12 98.73 145.90 102.65 L 145.24 100.82 Z" />
<path fill="#ffffff" opacity="1.00" d=" M 222.28 93.29 C 222.41 92.85 222.66 91.99 222.79 91.55 C 230.86 93.57 238.53 97.05 245.79 101.08 C 245.42 101.41 244.67 102.07 244.29 102.40 C 237.30 98.60 229.91 95.55 222.28 93.29 Z" />
<path fill="#ffffff" opacity="1.00" d=" M 204.06 93.16 C 209.30 93.56 214.46 94.59 219.57 95.79 C 218.76 99.00 217.85 102.18 217.02 105.39 C 213.27 104.48 209.48 103.76 205.65 103.29 C 205.09 99.92 204.53 96.55 204.06 93.16 Z" />
<path fill="#ffffff" opacity="1.00" d=" M 171.11 95.76 C 176.22 94.54 181.42 93.70 186.64 93.10 C 186.12 96.47 185.53 99.85 185.21 103.25 C 181.33 103.79 177.47 104.48 173.67 105.41 C 172.78 102.21 171.90 99.00 171.11 95.76 Z" />
<path fill="#ffffff" opacity="1.00" d=" M 147.75 105.20 C 154.67 101.42 161.97 98.38 169.55 96.19 C 170.01 99.38 172.13 102.87 171.53 105.90 C 165.03 108.05 158.58 110.46 152.62 113.88 C 150.95 111.01 149.26 108.15 147.75 105.20 Z" />
<path fill="#ffffff" opacity="1.00" d=" M 221.04 96.26 C 228.70 98.29 236.01 101.46 242.96 105.23 C 241.42 108.16 239.69 110.99 238.07 113.88 C 231.86 110.58 225.40 107.69 218.60 105.88 C 219.37 102.66 220.25 99.47 221.04 96.26 Z" />
<path fill="#ffffff" opacity="1.00" d=" M 125.01 115.97 C 130.66 110.34 137.15 105.55 144.06 101.57 L 144.49 103.43 C 137.87 107.72 131.45 112.37 125.78 117.88 C 125.59 117.40 125.20 116.44 125.01 115.97 Z" />
<path fill="#ffffff" opacity="1.00" d=" M 245.63 103.09 C 246.66 100.93 248.26 102.74 249.48 103.29 C 255.32 107.03 260.88 111.27 265.84 116.12 C 265.63 116.56 265.20 117.43 264.99 117.87 C 259.05 112.30 252.54 107.39 245.63 103.09 Z" />
<path fill="#ffffff" opacity="1.00" d=" M 137.18 127.09 C 150.25 114.96 167.10 107.12 184.77 104.83 C 183.69 111.90 182.72 119.00 181.43 126.04 C 170.78 128.09 160.90 133.34 152.68 140.34 C 147.53 135.90 142.28 131.58 137.18 127.09 Z" />
<path fill="#ffffff" opacity="1.00" d=" M 205.91 104.92 C 223.61 106.95 240.39 115.07 253.45 127.11 C 248.34 131.59 243.12 135.94 237.98 140.38 C 229.83 133.12 219.71 128.50 209.24 125.71 C 207.87 118.83 207.00 111.85 205.91 104.92 Z" />
<path fill="#ffffff" opacity="1.00" d=" M 128.63 119.24 C 134.21 114.47 139.92 109.85 146.23 106.08 C 147.98 108.93 149.64 111.84 151.26 114.77 C 145.73 117.90 140.68 121.80 136.03 126.10 C 133.55 123.84 130.54 122.06 128.63 119.24 Z" />
<path fill="#ffffff" opacity="1.00" d=" M 239.35 114.52 C 241.16 111.76 242.73 108.86 244.50 106.08 C 250.78 110.12 256.96 114.42 262.21 119.77 C 259.68 121.82 257.17 123.90 254.77 126.11 C 249.95 121.83 244.76 118.01 239.35 114.52 Z" />
<path fill="#ffffff" opacity="1.00" d=" M 121.96 119.09 C 122.44 119.25 123.40 119.57 123.88 119.73 C 118.57 125.33 113.82 131.44 109.83 138.05 C 109.29 139.93 107.10 137.56 108.41 136.62 C 112.28 130.34 116.66 124.25 121.96 119.09 Z" />
<path fill="#ffffff" opacity="1.00" d=" M 267.93 120.98 C 266.70 120.24 267.84 119.25 268.21 118.43 C 273.85 124.34 278.93 130.81 283.03 137.88 C 282.61 138.12 281.76 138.61 281.34 138.85 C 277.53 132.42 273.01 126.44 267.93 120.98 Z" />
<path fill="#ffffff" opacity="1.00" d=" M 125.17 123.13 L 125.99 123.02 C 128.23 125.15 130.03 127.69 132.06 130.01 C 127.71 134.76 123.98 140.02 120.48 145.41 C 117.73 143.67 114.91 142.05 112.06 140.47 C 115.70 134.20 120.02 128.24 125.17 123.13 Z" />
<path fill="#ffffff" opacity="1.00" d=" M 258.57 130.04 C 260.73 127.51 262.89 124.97 265.04 122.44 C 270.18 127.91 274.76 133.90 278.66 140.33 C 275.79 142.02 272.92 143.71 270.04 145.36 C 266.82 139.83 262.85 134.79 258.57 130.04 Z" />
<path fill="#ffffff" opacity="1.00" d=" M 153.26 140.83 C 161.39 133.93 171.14 128.85 181.62 126.72 C 181.00 127.88 181.40 130.09 179.66 130.30 C 170.82 132.64 162.61 137.07 155.59 142.91 C 155.01 142.39 153.84 141.35 153.26 140.83 Z" />
<path fill="#ffffff" opacity="1.00" d=" M 209.30 126.59 C 219.58 129.14 229.39 133.85 237.37 140.86 C 236.79 141.37 235.63 142.38 235.05 142.88 C 227.71 136.78 219.08 132.20 209.78 129.99 C 209.66 129.14 209.42 127.44 209.30 126.59 Z" />
<path fill="#ffffff" opacity="1.00" d=" M 110.78 178.81 C 113.03 161.11 120.98 144.29 133.08 131.20 C 137.52 136.33 141.85 141.55 146.32 146.66 C 139.33 154.92 134.07 164.80 131.98 175.47 C 124.93 176.72 117.85 177.72 110.78 178.81 Z" />
<path fill="#ffffff" opacity="1.00" d=" M 244.33 146.82 C 248.68 141.56 253.14 136.39 257.61 131.24 C 269.69 144.32 277.69 161.13 279.83 178.84 C 272.82 177.72 265.79 176.72 258.80 175.51 C 256.48 164.93 251.52 154.93 244.33 146.82 Z" />
<path fill="#ffffff" opacity="1.00" d=" M 158.03 144.95 C 164.60 139.58 172.21 135.46 180.44 133.31 C 178.83 142.22 177.67 151.21 176.16 160.14 C 169.92 155.32 164.13 149.95 158.03 144.95 Z" />
<path fill="#ffffff" opacity="1.00" d=" M 210.29 133.30 C 218.44 135.53 226.06 139.53 232.59 144.90 C 226.62 150.05 220.67 155.24 214.53 160.20 C 213.02 151.25 211.77 142.25 210.29 133.30 Z" />
<path fill="#ffffff" opacity="1.00" d=" M 282.34 140.61 C 282.70 140.23 283.41 139.47 283.76 139.09 C 287.48 145.80 290.64 152.87 292.69 160.26 C 293.30 161.50 292.75 162.49 291.76 163.25 C 289.29 155.44 286.41 147.74 282.34 140.61 Z" />
<path fill="#ffffff" opacity="1.00" d=" M 97.27 162.42 C 99.51 154.49 102.49 146.68 106.78 139.63 L 108.65 139.77 C 104.75 147.09 101.40 154.71 99.22 162.72 C 98.73 162.65 97.76 162.50 97.27 162.42 Z" />
<path fill="#ffffff" opacity="1.00" d=" M 111.12 141.86 C 114.05 143.43 116.96 145.07 119.83 146.77 C 116.40 152.86 113.70 159.35 111.80 166.08 C 108.55 165.41 105.36 164.49 102.17 163.60 C 104.29 156.03 107.39 148.77 111.12 141.86 Z" />
<path fill="#ffffff" opacity="1.00" d=" M 270.88 146.82 C 273.64 145.05 276.52 143.45 279.35 141.78 C 283.40 148.57 286.22 156.00 288.51 163.53 C 285.32 164.54 282.08 165.42 278.81 166.12 C 276.99 159.38 274.28 152.90 270.88 146.82 Z" />
<path fill="#ffffff" opacity="1.00" d=" M 132.65 175.48 C 134.99 165.07 139.87 155.18 147.00 147.20 C 147.54 148.25 149.40 149.60 147.99 150.76 C 142.28 157.74 138.14 165.99 136.02 174.76 C 135.18 174.94 133.49 175.30 132.65 175.48 Z" />
<path fill="#ffffff" opacity="1.00" d=" M 243.55 147.33 C 250.91 155.11 255.74 165.18 257.96 175.60 C 257.19 175.41 255.64 175.03 254.86 174.84 C 252.25 165.76 248.17 157.02 241.92 149.87 C 242.33 149.23 243.15 147.97 243.55 147.33 Z" />
<path fill="#ffffff" opacity="1.00" d=" M 139.28 174.41 C 141.49 166.23 145.49 158.57 150.93 152.07 C 155.93 158.18 161.28 164.01 166.16 170.22 C 157.19 171.55 148.23 173.00 139.28 174.41 Z" />
<path fill="#ffffff" opacity="1.00" d=" M 224.33 170.22 C 229.52 164.19 234.58 158.03 239.86 152.07 C 245.15 158.67 249.18 166.26 251.41 174.42 C 242.39 172.97 233.36 171.57 224.33 170.22 Z" />
<path fill="#ffffff" opacity="1.00" d=" M 96.88 163.82 C 97.35 163.93 98.28 164.14 98.74 164.24 C 97.51 169.47 96.62 174.76 95.99 180.09 C 95.70 180.61 95.13 181.64 94.84 182.16 C 94.21 180.88 93.96 179.49 94.21 178.10 C 94.74 173.28 95.67 168.51 96.88 163.82 Z" />
<path fill="#ffffff" opacity="1.00" d=" M 101.72 165.17 C 104.93 166.02 108.14 166.88 111.34 167.74 C 110.41 171.49 109.74 175.30 109.20 179.12 C 105.84 179.60 102.49 180.16 99.13 180.65 C 99.54 175.42 100.56 170.28 101.72 165.17 Z" />
<path fill="#ffffff" opacity="1.00" d=" M 279.29 167.74 C 282.50 166.92 285.70 166.02 288.93 165.22 C 290.17 170.30 291.07 175.47 291.58 180.68 C 288.20 180.18 284.83 179.60 281.44 179.12 C 280.90 175.29 280.22 171.49 279.29 167.74 Z" />
<path fill="#ffffff" opacity="1.00" d=" M 196.27 188.88 C 202.74 182.50 209.18 176.08 215.55 169.60 C 256.08 175.83 296.59 182.36 337.12 188.47 C 334.12 188.87 331.09 188.95 328.06 188.93 C 284.13 188.87 240.20 188.96 196.27 188.88 Z" />
<path fill="#ffffff" opacity="1.00" d=" M 56.13 190.50 C 57.92 189.40 60.09 189.84 62.07 189.73 C 106.15 189.84 150.23 189.72 194.31 189.79 C 187.89 196.17 181.65 202.76 175.04 208.93 C 152.00 205.87 129.08 201.81 106.08 198.39 C 89.48 195.55 72.74 193.41 56.13 190.50 Z" />
<path fill="#ffffff" opacity="1.00" d=" M 195.74 190.32 C 201.82 196.56 208.06 202.63 214.16 208.84 C 215.24 209.65 214.85 211.01 214.72 212.14 C 209.05 248.75 203.26 285.34 197.60 321.95 C 197.02 323.74 197.75 326.33 195.82 327.39 C 195.62 281.70 195.78 236.01 195.74 190.32 Z" />
<path fill="#ffffff" opacity="1.00" d=" M 94.02 198.68 C 94.26 198.42 94.73 197.90 94.97 197.64 C 95.25 197.89 95.80 198.38 96.07 198.63 C 96.54 204.02 97.55 209.33 98.76 214.60 C 98.28 214.68 97.32 214.83 96.84 214.91 C 95.57 209.56 94.50 204.16 94.02 198.68 Z" />
<path fill="#ffffff" opacity="1.00" d=" M 281.43 199.67 C 284.81 199.12 288.19 198.56 291.59 198.10 C 291.11 203.32 290.08 208.47 288.99 213.60 C 285.73 212.88 282.52 211.95 279.29 211.10 C 280.18 207.33 280.96 203.53 281.43 199.67 Z" />
<path fill="#ffffff" opacity="1.00" d=" M 292.07 215.06 C 292.88 209.28 294.25 203.59 294.80 197.77 L 296.71 197.06 C 296.23 202.95 295.46 208.88 293.76 214.55 C 293.33 214.67 292.49 214.93 292.07 215.06 Z" />
<path fill="#ffffff" opacity="1.00" d=" M 99.10 198.14 C 102.50 198.53 105.87 199.12 109.25 199.67 C 109.74 203.52 110.47 207.33 111.38 211.11 C 108.18 211.97 104.98 212.84 101.77 213.66 C 100.56 208.55 99.59 203.38 99.10 198.14 Z" />
<path fill="#ffffff" opacity="1.00" d=" M 258.80 203.23 C 265.81 202.11 272.81 200.92 279.85 199.95 C 278.01 214.08 272.69 227.77 264.28 239.28 C 262.16 242.14 260.09 245.12 257.26 247.34 C 253.10 242.12 248.67 237.13 244.36 232.04 C 251.42 223.79 256.50 213.85 258.80 203.23 Z" />
<path fill="#ffffff" opacity="1.00" d=" M 110.83 199.92 C 117.83 200.98 124.83 202.07 131.83 203.19 C 134.30 213.74 139.01 223.96 146.43 231.95 C 141.94 237.09 137.58 242.35 133.11 247.51 C 120.90 234.51 113.01 217.61 110.83 199.92 Z" />
<path fill="#ffffff" opacity="1.00" d=" M 132.60 203.31 C 133.44 203.43 135.12 203.66 135.95 203.78 C 138.09 212.66 142.31 220.99 148.05 228.08 C 149.43 229.40 147.57 230.72 146.31 231.03 C 139.77 222.93 134.94 213.48 132.60 203.31 Z" />
<path fill="#ffffff" opacity="1.00" d=" M 241.82 229.04 C 248.05 221.79 252.28 213.04 254.84 203.87 C 255.65 203.73 257.25 203.43 258.05 203.29 C 255.71 213.63 250.77 223.31 243.94 231.40 C 243.41 230.81 242.35 229.63 241.82 229.04 Z" />
<path fill="#ffffff" opacity="1.00" d=" M 139.22 204.32 C 148.25 205.80 157.31 207.07 166.32 208.59 C 161.14 214.58 156.02 220.62 150.92 226.68 C 145.47 220.16 141.55 212.47 139.22 204.32 Z" />
<path fill="#ffffff" opacity="1.00" d=" M 224.37 208.54 C 233.40 207.19 242.40 205.71 251.43 204.37 C 249.13 212.51 245.16 220.13 239.80 226.67 C 234.66 220.63 229.48 214.61 224.37 208.54 Z" />
<path fill="#ffffff" opacity="1.00" d=" M 102.18 215.27 C 105.37 214.32 108.58 213.48 111.79 212.63 C 113.67 219.41 116.46 225.90 119.82 232.08 C 116.96 233.76 114.12 235.47 111.16 236.96 C 107.39 230.08 104.39 222.80 102.18 215.27 Z" />
<path fill="#ffffff" opacity="1.00" d=" M 278.87 212.60 C 282.05 213.49 285.22 214.39 288.45 215.11 C 286.45 222.76 283.17 229.97 279.56 236.98 C 276.53 235.54 273.66 233.79 270.80 232.05 C 274.27 225.92 276.94 219.36 278.87 212.60 Z" />
<path fill="#ffffff" opacity="1.00" d=" M 97.28 216.40 C 97.78 216.34 98.79 216.22 99.30 216.17 C 101.35 223.94 104.63 231.32 108.42 238.39 C 108.05 238.72 107.30 239.38 106.92 239.71 C 102.82 232.35 99.50 224.54 97.28 216.40 Z" />
<path fill="#ffffff" opacity="1.00" d=" M 291.43 216.05 C 291.92 216.18 292.92 216.45 293.41 216.58 C 290.97 224.41 288.06 232.16 283.88 239.24 C 283.40 239.19 282.45 239.08 281.98 239.03 C 285.82 231.68 289.32 224.10 291.43 216.05 Z" />
<path fill="#ffffff" opacity="1.00" d=" M 158.05 233.88 C 164.02 228.60 170.22 223.61 176.15 218.30 C 177.44 227.13 178.93 235.94 180.27 244.77 C 180.06 244.87 179.66 245.06 179.45 245.16 C 171.61 242.97 164.38 238.95 158.05 233.88 Z" />
<path fill="#ffffff" opacity="1.00" d=" M 214.49 218.70 C 220.56 223.20 226.12 228.36 231.86 233.27 L 232.03 234.12 C 225.88 239.64 218.17 243.07 210.35 245.50 C 211.65 236.56 213.07 227.63 214.49 218.70 Z" />
<path fill="#ffffff" opacity="1.00" d=" M 112.07 238.35 C 114.88 236.79 117.68 235.22 120.34 233.40 C 124.06 238.61 127.55 244.02 132.07 248.60 C 129.98 251.25 127.84 253.85 125.48 256.25 C 120.49 250.70 115.81 244.84 112.07 238.35 Z" />
<path fill="#ffffff" opacity="1.00" d=" M 258.54 248.70 C 262.89 244.05 266.68 238.90 269.99 233.47 C 272.82 235.11 275.64 236.77 278.55 238.27 C 274.91 244.86 270.19 250.80 265.00 256.24 C 262.81 253.75 260.71 251.20 258.54 248.70 Z" />
<path fill="#ffffff" opacity="1.00" d=" M 153.28 237.84 C 154.11 237.19 154.95 236.54 155.79 235.90 C 162.93 242.03 171.53 246.46 180.69 248.65 C 180.88 249.50 181.28 251.19 181.47 252.03 C 171.07 249.79 161.30 244.83 153.28 237.84 Z" />
<path fill="#ffffff" opacity="1.00" d=" M 209.90 248.81 C 219.10 246.40 227.65 241.98 235.02 235.98 C 235.60 236.47 236.77 237.45 237.36 237.94 C 229.27 244.83 219.56 249.80 209.17 252.06 C 209.35 251.24 209.72 249.62 209.90 248.81 Z" />
<path fill="#ffffff" opacity="1.00" d=" M 137.18 251.55 C 142.42 247.23 147.50 242.73 152.72 238.39 C 160.90 245.52 170.89 250.51 181.49 252.83 C 182.63 259.86 183.72 266.91 184.77 273.95 C 167.10 271.61 150.18 263.79 137.18 251.55 Z" />
<path fill="#ffffff" opacity="1.00" d=" M 209.25 252.84 C 219.86 250.50 229.80 245.45 238.02 238.36 C 243.08 242.69 248.02 247.16 253.29 251.23 C 251.55 253.79 248.92 255.51 246.51 257.40 C 234.73 266.38 220.53 271.99 205.86 273.90 C 207.04 266.88 207.88 259.82 209.25 252.84 Z" />
<path fill="#ffffff" opacity="1.00" d=" M 281.26 240.11 C 281.66 240.31 282.48 240.70 282.89 240.90 C 278.99 247.89 273.92 254.15 268.54 260.05 C 268.03 259.60 267.53 259.15 267.03 258.71 C 272.42 253.03 277.17 246.78 281.26 240.11 Z" />
<path fill="#ffffff" opacity="1.00" d=" M 107.50 240.63 C 109.58 239.04 110.27 241.68 111.21 242.83 C 114.74 248.62 119.10 253.85 123.70 258.83 C 123.30 259.13 122.52 259.74 122.12 260.04 C 116.53 254.15 111.54 247.68 107.50 240.63 Z" />
<path fill="#ffffff" opacity="1.00" d=" M 128.32 259.16 C 130.88 256.98 133.43 254.78 135.97 252.59 C 140.69 256.91 145.79 260.83 151.32 264.06 C 149.65 266.92 148.01 269.80 146.36 272.67 C 139.84 268.89 133.99 264.10 128.32 259.16 Z" />
<path fill="#ffffff" opacity="1.00" d=" M 239.37 264.08 C 245.03 261.05 249.67 256.43 254.93 252.95 C 257.49 254.81 259.77 257.02 262.23 259.00 C 256.83 264.28 250.76 268.89 244.21 272.64 C 242.63 269.76 240.96 266.94 239.37 264.08 Z" />
<path fill="#ffffff" opacity="1.00" d=" M 125.08 262.87 C 124.74 261.25 125.90 260.87 126.94 261.96 C 132.50 267.24 138.85 271.55 145.16 275.87 C 144.70 276.10 143.79 276.54 143.33 276.77 C 136.77 272.82 130.56 268.22 125.08 262.87 Z" />
<path fill="#ffffff" opacity="1.00" d=" M 264.59 261.13 C 265.10 261.57 265.61 262.01 266.13 262.46 C 260.24 267.92 253.95 273.01 246.94 276.95 C 246.74 276.53 246.35 275.70 246.15 275.29 C 252.69 271.12 259.00 266.54 264.59 261.13 Z" />
<path fill="#ffffff" opacity="1.00" d=" M 147.85 273.61 C 149.29 270.61 151.00 267.76 152.68 264.89 C 158.82 268.22 165.26 271.03 172.01 272.89 C 171.30 276.10 170.42 279.26 169.63 282.45 C 162.00 280.53 154.80 277.26 147.85 273.61 Z" />
<path fill="#ffffff" opacity="1.00" d=" M 218.56 272.92 C 225.33 271.03 231.82 268.25 238.01 264.92 C 239.63 267.76 241.27 270.58 242.92 273.40 C 236.06 277.35 228.68 280.45 221.02 282.47 C 220.26 279.27 219.37 276.10 218.56 272.92 Z" />
<path fill="#ffffff" opacity="1.00" d=" M 173.61 273.37 C 177.39 274.30 181.23 274.95 185.09 275.46 C 185.55 278.85 186.12 282.23 186.62 285.62 C 181.40 285.14 176.27 284.10 171.15 283.03 C 171.88 279.79 172.78 276.59 173.61 273.37 Z" />
<path fill="#ffffff" opacity="1.00" d=" M 205.62 275.48 C 209.44 274.92 213.26 274.27 217.02 273.35 C 217.87 276.55 218.73 279.76 219.52 282.99 C 214.43 284.20 209.27 285.05 204.07 285.64 C 204.50 282.24 205.12 278.87 205.62 275.48 Z" />
<path fill="#ffffff" opacity="1.00" d=" M 222.35 285.43 C 230.04 283.21 237.39 280.00 244.48 276.33 C 244.77 276.69 245.34 277.42 245.63 277.78 C 238.17 281.90 230.28 285.38 221.98 287.40 C 222.07 286.91 222.26 285.92 222.35 285.43 Z" />
<path fill="#ffffff" opacity="1.00" d=" M 145.04 277.81 C 145.40 277.44 146.13 276.72 146.49 276.35 C 153.56 280.19 161.00 283.39 168.77 285.51 C 168.63 285.99 168.33 286.95 168.18 287.43 C 160.13 285.11 152.35 281.91 145.04 277.81 Z" />
<path fill="#ffffff" opacity="1.00" d=" M 170.08 286.10 C 175.60 287.00 181.06 288.24 186.64 288.78 C 186.95 289.21 187.59 290.09 187.91 290.53 C 181.83 290.63 175.78 289.32 169.93 287.79 C 169.97 287.37 170.04 286.52 170.08 286.10 Z" />
<path fill="#ffffff" opacity="1.00" d=" M 203.67 288.87 C 209.26 288.28 214.77 287.01 220.32 286.24 C 220.51 286.60 220.90 287.32 221.09 287.69 C 215.22 289.30 209.19 290.35 203.11 290.75 L 203.67 288.87 Z" />
</g>
<g id="#010101ff">
<path fill="#010101" opacity="1.00" d=" M 198.45 10.33 C 201.27 9.25 204.70 9.24 207.54 10.32 C 206.63 10.60 204.83 11.15 203.92 11.43 C 203.31 19.70 204.54 28.09 203.27 36.28 C 197.53 28.93 192.77 20.87 187.35 13.28 C 187.39 19.58 187.25 25.89 187.39 32.20 C 187.02 34.26 189.49 33.73 190.68 33.92 L 190.83 35.23 C 188.23 35.23 185.63 35.25 183.03 35.26 L 183.12 34.01 C 183.75 33.90 184.99 33.68 185.62 33.57 C 186.29 26.18 185.79 18.69 185.87 11.27 C 185.05 11.12 183.41 10.83 182.59 10.68 L 182.63 9.68 C 185.86 9.68 189.09 9.67 192.32 9.66 C 195.72 14.59 199.01 19.60 202.44 24.52 C 202.40 20.14 202.59 15.76 202.30 11.39 C 201.33 11.13 199.41 10.60 198.45 10.33 Z" />
<path fill="#010101" opacity="1.00" d=" M 194.48 42.89 C 194.66 41.69 194.96 40.51 195.41 39.38 C 198.33 54.97 200.45 70.72 202.96 86.38 C 209.06 86.84 215.10 87.89 221.05 89.33 C 221.55 88.76 222.55 87.62 223.05 87.05 C 223.09 87.76 223.16 89.18 223.20 89.90 C 231.14 92.26 238.88 95.37 246.08 99.51 C 246.63 98.96 247.74 97.84 248.30 97.29 C 248.21 98.11 248.04 99.77 247.96 100.59 C 254.91 104.67 261.41 109.59 267.13 115.28 C 271.87 111.77 276.14 107.68 280.69 103.94 C 277.02 108.53 273.03 112.85 269.38 117.47 C 275.07 123.29 280.11 129.78 284.17 136.84 C 284.93 136.68 286.43 136.35 287.18 136.19 C 286.64 137.11 286.03 137.98 285.35 138.80 C 289.39 146.01 292.53 153.71 294.80 161.66 C 295.61 161.72 297.24 161.86 298.06 161.92 C 297.24 162.47 296.42 163.02 295.59 163.55 C 295.07 164.40 294.55 165.25 294.03 166.09 L 293.74 163.90 L 292.04 164.09 C 293.06 169.74 294.21 175.36 294.81 181.08 L 296.71 181.66 C 296.37 176.84 295.69 172.03 294.52 167.34 C 294.98 166.54 295.45 165.74 295.94 164.96 C 296.76 170.62 297.86 176.24 298.44 181.94 C 310.36 183.38 322.16 185.61 334.06 187.26 C 337.79 188.15 341.76 188.05 345.35 189.48 C 329.74 192.36 313.98 194.43 298.32 197.03 C 297.82 203.15 296.80 209.21 295.34 215.17 C 296.00 215.64 297.34 216.60 298.00 217.08 C 297.20 217.10 295.59 217.15 294.78 217.17 C 292.48 225.16 289.31 232.91 285.20 240.15 C 286.15 240.82 286.76 241.72 287.04 242.83 C 286.07 242.53 285.11 242.21 284.15 241.88 C 280.07 248.93 275.06 255.44 269.39 261.28 C 272.82 265.67 276.67 269.71 280.09 274.11 C 275.71 270.65 271.57 266.92 267.26 263.38 C 261.42 269.16 254.83 274.16 247.73 278.30 C 248.08 279.22 248.42 280.15 248.75 281.08 C 247.63 280.85 246.73 280.27 246.05 279.34 C 238.81 283.37 231.09 286.47 223.17 288.87 C 223.17 289.49 223.16 290.73 223.16 291.35 L 221.71 291.48 C 221.64 290.94 221.49 289.87 221.42 289.34 C 215.32 290.81 209.13 291.82 202.88 292.41 C 201.24 304.47 199.06 316.46 197.40 328.52 L 196.37 328.15 C 197.06 331.92 196.41 335.75 195.39 339.39 C 194.27 336.44 194.12 333.26 193.59 330.18 C 191.60 317.56 189.70 304.93 187.65 292.32 C 181.52 291.87 175.42 290.92 169.49 289.33 C 169.17 290.00 168.53 291.35 168.22 292.02 C 167.56 291.08 167.51 289.93 167.51 288.83 C 159.48 286.55 151.74 283.32 144.47 279.22 C 144.08 279.80 143.32 280.97 142.94 281.55 L 142.36 280.51 C 142.45 279.95 142.65 278.83 142.74 278.27 C 135.79 273.98 129.16 269.13 123.32 263.40 C 118.91 267.16 114.53 270.95 110.05 274.62 C 113.72 270.12 117.71 265.87 121.24 261.26 C 115.55 255.60 110.87 249.04 106.57 242.30 C 105.72 242.28 104.00 242.22 103.15 242.19 C 103.72 241.69 104.87 240.68 105.44 240.18 C 101.33 232.95 98.12 225.19 95.92 217.17 C 95.20 217.22 93.76 217.31 93.04 217.36 C 93.33 216.18 94.27 215.59 95.34 215.19 C 93.86 209.17 92.79 203.06 92.31 196.88 C 79.64 194.98 66.89 193.37 54.36 190.74 C 51.29 190.66 48.22 190.30 45.28 189.41 C 46.75 188.84 48.31 188.56 49.87 188.32 C 64.04 186.15 78.21 183.95 92.36 181.69 C 92.65 175.66 93.97 169.77 95.13 163.87 C 94.58 163.29 93.49 162.14 92.94 161.56 C 93.67 161.60 95.14 161.69 95.88 161.74 C 97.89 154.07 101.05 146.76 104.72 139.75 C 105.91 138.42 103.82 137.34 103.59 136.09 C 104.55 136.34 105.51 136.60 106.47 136.86 C 110.57 129.79 115.61 123.30 121.26 117.40 C 117.58 112.87 113.68 108.53 109.94 104.06 C 114.40 107.58 118.56 111.48 123.04 114.97 C 123.36 114.82 124.00 114.53 124.31 114.38 C 129.89 109.03 136.22 104.57 142.67 100.36 C 142.54 99.67 142.28 98.29 142.16 97.60 C 142.78 98.00 144.03 98.80 144.65 99.21 C 152.02 95.53 159.55 92.06 167.54 89.94 C 167.61 89.10 167.75 87.41 167.81 86.57 C 168.28 87.28 169.21 88.69 169.67 89.39 C 175.55 87.85 181.58 86.88 187.63 86.40 C 190.05 71.92 192.17 57.39 194.48 42.89 M 194.27 48.33 C 188.33 88.62 181.70 128.80 175.61 169.07 C 182.08 175.43 188.41 181.93 194.85 188.34 C 194.94 143.56 194.84 98.79 194.90 54.01 C 194.92 52.10 194.83 50.17 194.27 48.33 M 169.76 90.93 C 169.87 91.40 170.09 92.33 170.20 92.79 C 175.76 91.47 181.39 90.51 187.07 89.96 C 187.18 89.46 187.40 88.46 187.50 87.96 C 181.52 88.45 175.58 89.43 169.76 90.93 M 202.90 88.11 L 203.80 89.94 C 209.63 90.45 215.33 91.83 221.11 92.63 L 220.38 90.90 C 214.72 89.21 208.80 88.33 202.90 88.11 M 145.24 100.82 L 145.90 102.65 C 153.12 98.73 160.71 95.44 168.65 93.25 C 168.58 92.78 168.44 91.83 168.37 91.36 C 160.26 93.42 152.57 96.84 145.24 100.82 M 222.28 93.29 C 229.91 95.55 237.30 98.60 244.29 102.40 C 244.67 102.07 245.42 101.41 245.79 101.08 C 238.53 97.05 230.86 93.57 222.79 91.55 C 222.66 91.99 222.41 92.85 222.28 93.29 M 204.06 93.16 C 204.53 96.55 205.09 99.92 205.65 103.29 C 209.48 103.76 213.27 104.48 217.02 105.39 C 217.85 102.18 218.76 99.00 219.57 95.79 C 214.46 94.59 209.30 93.56 204.06 93.16 M 171.11 95.76 C 171.90 99.00 172.78 102.21 173.67 105.41 C 177.47 104.48 181.33 103.79 185.21 103.25 C 185.53 99.85 186.12 96.47 186.64 93.10 C 181.42 93.70 176.22 94.54 171.11 95.76 M 147.75 105.20 C 149.26 108.15 150.95 111.01 152.62 113.88 C 158.58 110.46 165.03 108.05 171.53 105.90 C 172.13 102.87 170.01 99.38 169.55 96.19 C 161.97 98.38 154.67 101.42 147.75 105.20 M 221.04 96.26 C 220.25 99.47 219.37 102.66 218.60 105.88 C 225.40 107.69 231.86 110.58 238.07 113.88 C 239.69 110.99 241.42 108.16 242.96 105.23 C 236.01 101.46 228.70 98.29 221.04 96.26 M 125.01 115.97 C 125.20 116.44 125.59 117.40 125.78 117.88 C 131.45 112.37 137.87 107.72 144.49 103.43 L 144.06 101.57 C 137.15 105.55 130.66 110.34 125.01 115.97 M 245.63 103.09 C 252.54 107.39 259.05 112.30 264.99 117.87 C 265.20 117.43 265.63 116.56 265.84 116.12 C 260.88 111.27 255.32 107.03 249.48 103.29 C 248.26 102.74 246.66 100.93 245.63 103.09 M 137.18 127.09 C 142.28 131.58 147.53 135.90 152.68 140.34 C 160.90 133.34 170.78 128.09 181.43 126.04 C 182.72 119.00 183.69 111.90 184.77 104.83 C 167.10 107.12 150.25 114.96 137.18 127.09 M 205.91 104.92 C 207.00 111.85 207.87 118.83 209.24 125.71 C 219.71 128.50 229.83 133.12 237.98 140.38 C 243.12 135.94 248.34 131.59 253.45 127.11 C 240.39 115.07 223.61 106.95 205.91 104.92 M 128.63 119.24 C 130.54 122.06 133.55 123.84 136.03 126.10 C 140.68 121.80 145.73 117.90 151.26 114.77 C 149.64 111.84 147.98 108.93 146.23 106.08 C 139.92 109.85 134.21 114.47 128.63 119.24 M 239.35 114.52 C 244.76 118.01 249.95 121.83 254.77 126.11 C 257.17 123.90 259.68 121.82 262.21 119.77 C 256.96 114.42 250.78 110.12 244.50 106.08 C 242.73 108.86 241.16 111.76 239.35 114.52 M 121.96 119.09 C 116.66 124.25 112.28 130.34 108.41 136.62 C 107.10 137.56 109.29 139.93 109.83 138.05 C 113.82 131.44 118.57 125.33 123.88 119.73 C 123.40 119.57 122.44 119.25 121.96 119.09 M 267.93 120.98 C 273.01 126.44 277.53 132.42 281.34 138.85 C 281.76 138.61 282.61 138.12 283.03 137.88 C 278.93 130.81 273.85 124.34 268.21 118.43 C 267.84 119.25 266.70 120.24 267.93 120.98 M 125.17 123.13 C 120.02 128.24 115.70 134.20 112.06 140.47 C 114.91 142.05 117.73 143.67 120.48 145.41 C 123.98 140.02 127.71 134.76 132.06 130.01 C 130.03 127.69 128.23 125.15 125.99 123.02 L 125.17 123.13 M 258.57 130.04 C 262.85 134.79 266.82 139.83 270.04 145.36 C 272.92 143.71 275.79 142.02 278.66 140.33 C 274.76 133.90 270.18 127.91 265.04 122.44 C 262.89 124.97 260.73 127.51 258.57 130.04 M 153.26 140.83 C 153.84 141.35 155.01 142.39 155.59 142.91 C 162.61 137.07 170.82 132.64 179.66 130.30 C 181.40 130.09 181.00 127.88 181.62 126.72 C 171.14 128.85 161.39 133.93 153.26 140.83 M 209.30 126.59 C 209.42 127.44 209.66 129.14 209.78 129.99 C 219.08 132.20 227.71 136.78 235.05 142.88 C 235.63 142.38 236.79 141.37 237.37 140.86 C 229.39 133.85 219.58 129.14 209.30 126.59 M 110.78 178.81 C 117.85 177.72 124.93 176.72 131.98 175.47 C 134.07 164.80 139.33 154.92 146.32 146.66 C 141.85 141.55 137.52 136.33 133.08 131.20 C 120.98 144.29 113.03 161.11 110.78 178.81 M 244.33 146.82 C 251.52 154.93 256.48 164.93 258.80 175.51 C 265.79 176.72 272.82 177.72 279.83 178.84 C 277.69 161.13 269.69 144.32 257.61 131.24 C 253.14 136.39 248.68 141.56 244.33 146.82 M 158.03 144.95 C 164.13 149.95 169.92 155.32 176.16 160.14 C 177.67 151.21 178.83 142.22 180.44 133.31 C 172.21 135.46 164.60 139.58 158.03 144.95 M 210.29 133.30 C 211.77 142.25 213.02 151.25 214.53 160.20 C 220.67 155.24 226.62 150.05 232.59 144.90 C 226.06 139.53 218.44 135.53 210.29 133.30 M 282.34 140.61 C 286.41 147.74 289.29 155.44 291.76 163.25 C 292.75 162.49 293.30 161.50 292.69 160.26 C 290.64 152.87 287.48 145.80 283.76 139.09 C 283.41 139.47 282.70 140.23 282.34 140.61 M 97.27 162.42 C 97.76 162.50 98.73 162.65 99.22 162.72 C 101.40 154.71 104.75 147.09 108.65 139.77 L 106.78 139.63 C 102.49 146.68 99.51 154.49 97.27 162.42 M 111.12 141.86 C 107.39 148.77 104.29 156.03 102.17 163.60 C 105.36 164.49 108.55 165.41 111.80 166.08 C 113.70 159.35 116.40 152.86 119.83 146.77 C 116.96 145.07 114.05 143.43 111.12 141.86 M 270.88 146.82 C 274.28 152.90 276.99 159.38 278.81 166.12 C 282.08 165.42 285.32 164.54 288.51 163.53 C 286.22 156.00 283.40 148.57 279.35 141.78 C 276.52 143.45 273.64 145.05 270.88 146.82 M 132.65 175.48 C 133.49 175.30 135.18 174.94 136.02 174.76 C 138.14 165.99 142.28 157.74 147.99 150.76 C 149.40 149.60 147.54 148.25 147.00 147.20 C 139.87 155.18 134.99 165.07 132.65 175.48 M 243.55 147.33 C 243.15 147.97 242.33 149.23 241.92 149.87 C 248.17 157.02 252.25 165.76 254.86 174.84 C 255.64 175.03 257.19 175.41 257.96 175.60 C 255.74 165.18 250.91 155.11 243.55 147.33 M 139.28 174.41 C 148.23 173.00 157.19 171.55 166.16 170.22 C 161.28 164.01 155.93 158.18 150.93 152.07 C 145.49 158.57 141.49 166.23 139.28 174.41 M 224.33 170.22 C 233.36 171.57 242.39 172.97 251.41 174.42 C 249.18 166.26 245.15 158.67 239.86 152.07 C 234.58 158.03 229.52 164.19 224.33 170.22 M 96.88 163.82 C 95.67 168.51 94.74 173.28 94.21 178.10 C 93.96 179.49 94.21 180.88 94.84 182.16 C 95.13 181.64 95.70 180.61 95.99 180.09 C 96.62 174.76 97.51 169.47 98.74 164.24 C 98.28 164.14 97.35 163.93 96.88 163.82 M 101.72 165.17 C 100.56 170.28 99.54 175.42 99.13 180.65 C 102.49 180.16 105.84 179.60 109.20 179.12 C 109.74 175.30 110.41 171.49 111.34 167.74 C 108.14 166.88 104.93 166.02 101.72 165.17 M 279.29 167.74 C 280.22 171.49 280.90 175.29 281.44 179.12 C 284.83 179.60 288.20 180.18 291.58 180.68 C 291.07 175.47 290.17 170.30 288.93 165.22 C 285.70 166.02 282.50 166.92 279.29 167.74 M 196.27 188.88 C 240.20 188.96 284.13 188.87 328.06 188.93 C 331.09 188.95 334.12 188.87 337.12 188.47 C 296.59 182.36 256.08 175.83 215.55 169.60 C 209.18 176.08 202.74 182.50 196.27 188.88 M 56.13 190.50 C 72.74 193.41 89.48 195.55 106.08 198.39 C 129.08 201.81 152.00 205.87 175.04 208.93 C 181.65 202.76 187.89 196.17 194.31 189.79 C 150.23 189.72 106.15 189.84 62.07 189.73 C 60.09 189.84 57.92 189.40 56.13 190.50 M 195.74 190.32 C 195.78 236.01 195.62 281.70 195.82 327.39 C 197.75 326.33 197.02 323.74 197.60 321.95 C 203.26 285.34 209.05 248.75 214.72 212.14 C 214.85 211.01 215.24 209.65 214.16 208.84 C 208.06 202.63 201.82 196.56 195.74 190.32 M 94.02 198.68 C 94.50 204.16 95.57 209.56 96.84 214.91 C 97.32 214.83 98.28 214.68 98.76 214.60 C 97.55 209.33 96.54 204.02 96.07 198.63 C 95.80 198.38 95.25 197.89 94.97 197.64 C 94.73 197.90 94.26 198.42 94.02 198.68 M 281.43 199.67 C 280.96 203.53 280.18 207.33 279.29 211.10 C 282.52 211.95 285.73 212.88 288.99 213.60 C 290.08 208.47 291.11 203.32 291.59 198.10 C 288.19 198.56 284.81 199.12 281.43 199.67 M 292.07 215.06 C 292.49 214.93 293.33 214.67 293.76 214.55 C 295.46 208.88 296.23 202.95 296.71 197.06 L 294.80 197.77 C 294.25 203.59 292.88 209.28 292.07 215.06 M 99.10 198.14 C 99.59 203.38 100.56 208.55 101.77 213.66 C 104.98 212.84 108.18 211.97 111.38 211.11 C 110.47 207.33 109.74 203.52 109.25 199.67 C 105.87 199.12 102.50 198.53 99.10 198.14 M 258.80 203.23 C 256.50 213.85 251.42 223.79 244.36 232.04 C 248.67 237.13 253.10 242.12 257.26 247.34 C 260.09 245.12 262.16 242.14 264.28 239.28 C 272.69 227.77 278.01 214.08 279.85 199.95 C 272.81 200.92 265.81 202.11 258.80 203.23 M 110.83 199.92 C 113.01 217.61 120.90 234.51 133.11 247.51 C 137.58 242.35 141.94 237.09 146.43 231.95 C 139.01 223.96 134.30 213.74 131.83 203.19 C 124.83 202.07 117.83 200.98 110.83 199.92 M 132.60 203.31 C 134.94 213.48 139.77 222.93 146.31 231.03 C 147.57 230.72 149.43 229.40 148.05 228.08 C 142.31 220.99 138.09 212.66 135.95 203.78 C 135.12 203.66 133.44 203.43 132.60 203.31 M 241.82 229.04 C 242.35 229.63 243.41 230.81 243.94 231.40 C 250.77 223.31 255.71 213.63 258.05 203.29 C 257.25 203.43 255.65 203.73 254.84 203.87 C 252.28 213.04 248.05 221.79 241.82 229.04 M 139.22 204.32 C 141.55 212.47 145.47 220.16 150.92 226.68 C 156.02 220.62 161.14 214.58 166.32 208.59 C 157.31 207.07 148.25 205.80 139.22 204.32 M 224.37 208.54 C 229.48 214.61 234.66 220.63 239.80 226.67 C 245.16 220.13 249.13 212.51 251.43 204.37 C 242.40 205.71 233.40 207.19 224.37 208.54 M 102.18 215.27 C 104.39 222.80 107.39 230.08 111.16 236.96 C 114.12 235.47 116.96 233.76 119.82 232.08 C 116.46 225.90 113.67 219.41 111.79 212.63 C 108.58 213.48 105.37 214.32 102.18 215.27 M 278.87 212.60 C 276.94 219.36 274.27 225.92 270.80 232.05 C 273.66 233.79 276.53 235.54 279.56 236.98 C 283.17 229.97 286.45 222.76 288.45 215.11 C 285.22 214.39 282.05 213.49 278.87 212.60 M 97.28 216.40 C 99.50 224.54 102.82 232.35 106.92 239.71 C 107.30 239.38 108.05 238.72 108.42 238.39 C 104.63 231.32 101.35 223.94 99.30 216.17 C 98.79 216.22 97.78 216.34 97.28 216.40 M 291.43 216.05 C 289.32 224.10 285.82 231.68 281.98 239.03 C 282.45 239.08 283.40 239.19 283.88 239.24 C 288.06 232.16 290.97 224.41 293.41 216.58 C 292.92 216.45 291.92 216.18 291.43 216.05 M 158.05 233.88 C 164.38 238.95 171.61 242.97 179.45 245.16 C 179.66 245.06 180.06 244.87 180.27 244.77 C 178.93 235.94 177.44 227.13 176.15 218.30 C 170.22 223.61 164.02 228.60 158.05 233.88 M 214.49 218.70 C 213.07 227.63 211.65 236.56 210.35 245.50 C 218.17 243.07 225.88 239.64 232.03 234.12 L 231.86 233.27 C 226.12 228.36 220.56 223.20 214.49 218.70 M 112.07 238.35 C 115.81 244.84 120.49 250.70 125.48 256.25 C 127.84 253.85 129.98 251.25 132.07 248.60 C 127.55 244.02 124.06 238.61 120.34 233.40 C 117.68 235.22 114.88 236.79 112.07 238.35 M 258.54 248.70 C 260.71 251.20 262.81 253.75 265.00 256.24 C 270.19 250.80 274.91 244.86 278.55 238.27 C 275.64 236.77 272.82 235.11 269.99 233.47 C 266.68 238.90 262.89 244.05 258.54 248.70 M 153.28 237.84 C 161.30 244.83 171.07 249.79 181.47 252.03 C 181.28 251.19 180.88 249.50 180.69 248.65 C 171.53 246.46 162.93 242.03 155.79 235.90 C 154.95 236.54 154.11 237.19 153.28 237.84 M 209.90 248.81 C 209.72 249.62 209.35 251.24 209.17 252.06 C 219.56 249.80 229.27 244.83 237.36 237.94 C 236.77 237.45 235.60 236.47 235.02 235.98 C 227.65 241.98 219.10 246.40 209.90 248.81 M 137.18 251.55 C 150.18 263.79 167.10 271.61 184.77 273.95 C 183.72 266.91 182.63 259.86 181.49 252.83 C 170.89 250.51 160.90 245.52 152.72 238.39 C 147.50 242.73 142.42 247.23 137.18 251.55 M 209.25 252.84 C 207.88 259.82 207.04 266.88 205.86 273.90 C 220.53 271.99 234.73 266.38 246.51 257.40 C 248.92 255.51 251.55 253.79 253.29 251.23 C 248.02 247.16 243.08 242.69 238.02 238.36 C 229.80 245.45 219.86 250.50 209.25 252.84 M 281.26 240.11 C 277.17 246.78 272.42 253.03 267.03 258.71 C 267.53 259.15 268.03 259.60 268.54 260.05 C 273.92 254.15 278.99 247.89 282.89 240.90 C 282.48 240.70 281.66 240.31 281.26 240.11 M 107.50 240.63 C 111.54 247.68 116.53 254.15 122.12 260.04 C 122.52 259.74 123.30 259.13 123.70 258.83 C 119.10 253.85 114.74 248.62 111.21 242.83 C 110.27 241.68 109.58 239.04 107.50 240.63 M 128.32 259.16 C 133.99 264.10 139.84 268.89 146.36 272.67 C 148.01 269.80 149.65 266.92 151.32 264.06 C 145.79 260.83 140.69 256.91 135.97 252.59 C 133.43 254.78 130.88 256.98 128.32 259.16 M 239.37 264.08 C 240.96 266.94 242.63 269.76 244.21 272.64 C 250.76 268.89 256.83 264.28 262.23 259.00 C 259.77 257.02 257.49 254.81 254.93 252.95 C 249.67 256.43 245.03 261.05 239.37 264.08 M 125.08 262.87 C 130.56 268.22 136.77 272.82 143.33 276.77 C 143.79 276.54 144.70 276.10 145.16 275.87 C 138.85 271.55 132.50 267.24 126.94 261.96 C 125.90 260.87 124.74 261.25 125.08 262.87 M 264.59 261.13 C 259.00 266.54 252.69 271.12 246.15 275.29 C 246.35 275.70 246.74 276.53 246.94 276.95 C 253.95 273.01 260.24 267.92 266.13 262.46 C 265.61 262.01 265.10 261.57 264.59 261.13 M 147.85 273.61 C 154.80 277.26 162.00 280.53 169.63 282.45 C 170.42 279.26 171.30 276.10 172.01 272.89 C 165.26 271.03 158.82 268.22 152.68 264.89 C 151.00 267.76 149.29 270.61 147.85 273.61 M 218.56 272.92 C 219.37 276.10 220.26 279.27 221.02 282.47 C 228.68 280.45 236.06 277.35 242.92 273.40 C 241.27 270.58 239.63 267.76 238.01 264.92 C 231.82 268.25 225.33 271.03 218.56 272.92 M 173.61 273.37 C 172.78 276.59 171.88 279.79 171.15 283.03 C 176.27 284.10 181.40 285.14 186.62 285.62 C 186.12 282.23 185.55 278.85 185.09 275.46 C 181.23 274.95 177.39 274.30 173.61 273.37 M 205.62 275.48 C 205.12 278.87 204.50 282.24 204.07 285.64 C 209.27 285.05 214.43 284.20 219.52 282.99 C 218.73 279.76 217.87 276.55 217.02 273.35 C 213.26 274.27 209.44 274.92 205.62 275.48 M 222.35 285.43 C 222.26 285.92 222.07 286.91 221.98 287.40 C 230.28 285.38 238.17 281.90 245.63 277.78 C 245.34 277.42 244.77 276.69 244.48 276.33 C 237.39 280.00 230.04 283.21 222.35 285.43 M 145.04 277.81 C 152.35 281.91 160.13 285.11 168.18 287.43 C 168.33 286.95 168.63 285.99 168.77 285.51 C 161.00 283.39 153.56 280.19 146.49 276.35 C 146.13 276.72 145.40 277.44 145.04 277.81 M 170.08 286.10 C 170.04 286.52 169.97 287.37 169.93 287.79 C 175.78 289.32 181.83 290.63 187.91 290.53 C 187.59 290.09 186.95 289.21 186.64 288.78 C 181.06 288.24 175.60 287.00 170.08 286.10 M 203.67 288.87 L 203.11 290.75 C 209.19 290.35 215.22 289.30 221.09 287.69 C 220.90 287.32 220.51 286.60 220.32 286.24 C 214.77 287.01 209.26 288.28 203.67 288.87 Z" />
<path fill="#010101" opacity="1.00" d=" M 162.34 79.86 C 161.88 78.12 163.82 77.29 164.96 76.47 C 166.07 77.31 167.84 78.08 167.43 79.81 C 167.46 81.28 165.85 81.72 164.96 82.53 C 163.99 81.76 162.43 81.33 162.34 79.86 Z" />
<path fill="#010101" opacity="1.00" d=" M 221.26 79.12 C 221.20 76.25 226.45 76.33 226.32 79.12 C 226.67 80.82 225.20 81.70 223.99 82.49 C 222.76 81.82 220.63 80.95 221.26 79.12 Z" />
<path fill="#010101" opacity="1.00" d=" M 106.26 84.35 C 107.47 83.53 108.64 82.66 109.79 81.77 C 109.64 82.28 109.34 83.29 109.19 83.80 C 110.36 86.44 111.48 89.10 112.60 91.76 C 110.52 91.02 108.45 90.23 106.25 89.94 C 107.12 91.86 107.99 93.79 108.80 95.74 C 105.13 94.83 101.77 91.63 97.84 92.65 C 99.33 91.51 100.72 90.26 102.07 88.97 C 102.14 89.41 102.26 90.28 102.33 90.71 C 103.45 91.20 105.70 92.18 106.82 92.67 C 105.99 90.51 105.14 88.36 104.32 86.20 C 106.49 87.05 108.63 87.95 110.81 88.80 C 110.22 87.51 109.57 86.25 108.86 85.03 C 108.03 84.67 107.16 84.44 106.26 84.35 Z" />
<path fill="#010101" opacity="1.00" d=" M 134.42 91.04 C 135.14 89.73 136.03 87.86 137.89 88.29 C 140.26 88.62 140.83 92.43 138.50 93.25 C 136.68 94.13 135.25 92.43 134.42 91.04 Z" />
<path fill="#010101" opacity="1.00" d=" M 250.47 88.41 C 252.04 87.77 254.04 89.31 253.75 90.98 C 254.08 93.24 250.46 94.41 249.26 92.57 C 248.01 91.35 248.67 88.65 250.47 88.41 Z" />
<path fill="#010101" opacity="1.00" d=" M 92.86 98.36 C 93.83 97.30 94.19 95.23 95.94 95.26 C 99.50 94.81 100.69 101.61 104.38 99.10 C 101.49 102.04 98.25 104.62 95.69 107.86 C 96.64 104.66 93.18 103.11 91.55 100.95 C 90.95 101.11 89.77 101.43 89.18 101.58 C 90.34 100.43 91.50 99.28 92.86 98.36 M 95.04 96.18 C 94.58 96.90 93.66 98.34 93.19 99.06 C 95.05 101.24 98.50 106.72 100.68 101.80 C 98.99 99.75 97.02 97.95 95.04 96.18 Z" />
<path fill="#010101" opacity="1.00" d=" M 288.61 102.57 C 287.07 98.21 293.02 94.20 296.35 97.63 C 296.67 98.19 297.30 99.31 297.61 99.87 C 297.18 100.75 297.45 103.03 295.97 102.67 C 294.43 101.66 293.10 100.39 291.64 99.29 C 290.56 100.73 288.92 102.17 289.69 104.18 C 291.43 105.03 293.35 104.68 295.19 104.50 C 292.94 105.99 289.15 105.71 288.61 102.57 M 293.27 98.16 C 293.25 99.32 293.80 100.05 294.91 100.34 C 297.27 99.69 294.68 96.22 293.27 98.16 Z" />
<path fill="#010101" opacity="1.00" d=" M 96.04 135.21 C 92.19 135.18 92.64 129.92 96.08 129.48 C 98.77 130.49 99.34 134.63 96.04 135.21 Z" />
<path fill="#010101" opacity="1.00" d=" M 290.39 132.04 C 290.42 129.23 295.34 129.45 295.41 132.15 C 295.80 133.80 294.17 134.70 293.12 135.54 C 291.82 134.84 289.70 133.93 290.39 132.04 Z" />
<path fill="#010101" opacity="1.00" d=" M 81.70 161.19 C 81.62 159.36 82.68 156.90 84.90 157.39 C 87.37 157.68 87.62 161.31 85.57 162.38 C 84.10 162.94 82.91 161.80 81.70 161.19 Z" />
<path fill="#010101" opacity="1.00" d=" M 302.53 157.45 C 303.81 157.68 305.64 156.99 306.36 158.45 C 307.47 159.78 306.31 161.30 305.63 162.50 C 304.60 162.45 303.57 162.40 302.55 162.36 C 301.53 160.79 301.69 159.04 302.53 157.45 Z" />
<path fill="#010101" opacity="1.00" d=" M 38.99 175.87 C 41.71 175.79 44.58 175.27 47.20 176.25 C 46.04 177.01 43.90 176.77 43.49 178.42 C 40.35 186.15 37.29 193.92 34.23 201.68 C 33.88 201.67 33.18 201.66 32.82 201.66 C 31.48 198.13 30.08 194.62 28.61 191.15 C 26.78 194.92 25.13 198.78 22.99 202.39 C 18.77 194.35 15.94 185.63 12.49 177.24 C 11.30 177.00 10.11 176.75 8.93 176.49 C 11.10 175.32 13.62 175.79 15.98 175.71 C 23.45 175.84 30.94 175.50 38.40 175.91 C 37.08 176.58 35.92 177.44 34.92 178.50 C 33.58 176.77 31.38 177.05 29.43 176.99 C 30.13 178.79 30.81 180.59 31.49 182.40 L 32.07 180.00 C 32.48 180.71 32.89 181.43 33.29 182.15 C 31.59 182.94 32.57 184.85 33.01 186.07 C 33.98 188.49 34.89 190.94 36.08 193.26 C 38.10 188.00 40.37 182.84 42.19 177.51 C 41.07 177.07 39.89 176.72 38.99 175.87 M 18.66 177.02 C 21.03 182.70 23.28 188.43 25.57 194.15 C 26.46 192.55 27.25 190.89 27.98 189.21 C 26.22 185.20 24.66 181.11 23.03 177.05 C 21.57 177.03 20.12 177.03 18.66 177.02 Z" />
<path fill="#010101" opacity="1.00" d=" M 351.22 177.36 C 358.38 177.33 365.53 177.36 372.69 177.34 C 372.80 179.96 373.01 182.60 372.54 185.21 C 371.28 183.44 370.49 181.34 368.92 179.83 C 366.49 178.30 363.50 178.71 360.78 178.56 C 360.74 182.25 360.73 185.95 360.79 189.64 C 364.26 189.77 365.73 186.76 367.11 184.16 C 367.59 188.07 367.55 192.04 367.18 195.97 C 365.92 193.19 364.34 190.24 360.78 190.43 C 360.74 194.15 360.76 197.87 360.77 201.59 C 363.60 201.41 366.90 202.19 369.31 200.27 C 371.44 198.64 371.86 195.75 373.59 193.79 C 373.93 196.80 373.61 199.83 373.46 202.85 C 365.89 202.81 358.31 203.09 350.74 202.71 C 351.39 201.13 353.19 201.71 354.51 201.46 C 354.49 193.85 354.48 186.24 354.51 178.64 C 353.70 178.63 352.07 178.62 351.25 178.62 C 351.25 178.30 351.23 177.67 351.22 177.36 Z" />
<path fill="#010101" opacity="1.00" d=" M 33.15 179.04 C 34.93 177.55 35.06 181.42 33.14 179.76 L 33.15 179.04 Z" />
<path fill="#010101" opacity="1.00" d=" M 82.39 217.23 C 83.30 215.82 85.06 216.53 86.41 216.52 C 86.54 217.98 87.68 220.06 85.90 220.93 C 83.73 222.87 80.32 219.35 82.39 217.23 Z" />
<path fill="#010101" opacity="1.00" d=" M 303.47 216.37 C 306.73 215.19 308.17 220.75 304.86 221.38 C 301.75 222.34 300.19 217.14 303.47 216.37 Z" />
<path fill="#010101" opacity="1.00" d=" M 95.59 243.68 C 96.95 243.63 98.43 244.68 98.35 246.14 C 98.68 248.21 95.98 249.72 94.36 248.43 C 92.30 247.27 93.19 243.71 95.59 243.68 Z" />
<path fill="#010101" opacity="1.00" d=" M 291.30 244.27 C 293.16 242.44 296.61 245.13 295.18 247.46 C 294.43 249.36 292.13 248.74 290.63 248.31 C 290.48 246.95 289.86 245.18 291.30 244.27 Z" />
<path fill="#010101" opacity="1.00" d=" M 93.46 274.37 C 94.95 271.91 98.64 273.47 99.15 275.99 C 101.95 276.79 102.90 279.94 105.08 281.65 C 104.58 281.49 103.57 281.17 103.07 281.01 C 102.38 282.66 101.70 284.33 101.04 286.00 C 103.24 285.30 105.35 284.39 107.46 283.47 C 106.58 285.60 105.70 287.72 104.91 289.89 C 106.41 288.63 111.20 288.85 109.19 285.77 C 110.21 286.80 111.24 287.80 112.29 288.80 C 111.78 288.64 110.76 288.32 110.25 288.16 C 107.38 289.40 104.52 290.64 101.67 291.89 C 102.50 289.79 103.33 287.69 104.12 285.57 C 102.03 286.27 99.97 287.07 97.92 287.90 C 99.02 284.92 100.26 281.99 101.61 279.12 C 100.54 278.60 99.47 278.11 98.39 277.62 C 98.20 275.32 97.47 272.94 94.55 273.83 C 95.49 276.20 98.54 279.39 95.64 281.56 C 92.57 282.94 91.04 279.96 89.44 277.99 C 90.24 277.23 91.03 276.48 91.82 275.73 C 91.59 277.42 90.72 279.35 92.16 280.78 C 92.99 280.90 94.67 281.15 95.51 281.27 C 95.15 278.86 92.55 276.89 93.46 274.37 Z" />
<path fill="#010101" opacity="1.00" d=" M 290.80 273.58 C 291.81 273.74 292.83 273.90 293.83 274.17 C 294.13 276.56 291.10 277.42 290.66 279.66 C 291.86 280.46 293.07 281.26 294.29 282.06 C 295.76 280.63 296.18 278.58 297.01 276.78 C 296.96 279.02 296.42 281.74 293.97 282.52 C 290.84 283.67 287.85 280.97 287.53 277.92 C 287.81 277.22 288.36 275.82 288.64 275.12 C 289.35 274.60 290.07 274.09 290.80 273.58 M 290.35 275.12 C 288.85 275.08 288.56 278.00 290.22 277.88 C 291.73 277.75 292.20 275.05 290.35 275.12 Z" />
<path fill="#010101" opacity="1.00" d=" M 281.28 282.46 C 282.25 281.50 283.45 280.81 284.58 280.06 C 284.97 280.51 285.74 281.40 286.13 281.84 C 283.87 280.64 280.63 282.29 282.01 285.07 C 283.85 284.46 285.47 283.34 287.18 282.44 C 288.40 283.33 290.42 284.21 289.75 286.12 C 289.97 288.41 287.32 288.91 285.87 290.00 C 285.13 289.38 284.39 288.77 283.65 288.16 C 285.42 288.16 288.07 289.28 289.03 287.09 C 289.11 286.43 289.27 285.10 289.35 284.44 C 286.59 284.61 284.52 287.32 281.61 286.45 C 281.41 285.13 281.08 283.80 281.28 282.46 Z" />
<path fill="#010101" opacity="1.00" d=" M 135.79 285.47 C 136.90 285.50 138.02 285.55 139.13 285.62 C 139.43 286.22 140.02 287.43 140.31 288.04 C 139.76 290.19 137.89 290.63 135.93 290.45 C 135.63 289.85 135.01 288.66 134.71 288.06 C 134.98 287.41 135.52 286.12 135.79 285.47 Z" />
<path fill="#010101" opacity="1.00" d=" M 250.47 285.45 C 252.04 284.93 254.06 286.23 253.76 288.00 C 253.97 289.62 252.01 290.99 250.51 290.39 C 248.04 290.00 248.05 285.87 250.47 285.45 Z" />
<path fill="#010101" opacity="1.00" d=" M 164.53 296.73 C 166.77 296.23 168.44 299.26 166.89 300.96 C 165.58 302.91 161.78 301.51 162.33 299.10 C 162.35 297.92 163.32 296.76 164.53 296.73 Z" />
<path fill="#010101" opacity="1.00" d=" M 223.56 296.71 C 225.63 296.38 227.38 299.36 225.77 300.89 C 224.84 302.34 222.25 302.15 221.52 300.58 C 220.55 299.02 221.75 296.79 223.56 296.71 Z" />
<path fill="#010101" opacity="1.00" d=" M 190.01 344.16 C 192.65 342.32 196.09 343.17 198.74 344.52 C 199.58 344.06 200.43 343.60 201.28 343.16 C 201.45 345.73 201.62 348.31 201.53 350.90 C 198.65 349.47 198.66 344.88 195.00 344.46 C 191.55 343.08 187.47 347.72 190.42 350.55 C 194.19 352.55 199.59 351.99 202.02 356.11 C 204.43 360.84 202.15 368.20 196.48 369.16 C 194.16 369.77 191.95 368.69 189.89 367.80 C 188.92 368.40 187.95 369.01 186.98 369.61 C 186.66 367.01 186.70 364.39 186.74 361.79 C 187.08 361.76 187.78 361.70 188.13 361.67 C 189.07 364.72 191.18 368.32 194.90 367.94 C 198.50 368.43 201.57 363.72 199.11 360.84 C 196.51 358.55 192.56 359.19 189.75 357.23 C 185.37 354.35 185.66 346.94 190.01 344.16 Z" />
</g>
</svg>
